<?xml version="1.0" encoding="UTF-8"?>
<svg width="874px" height="222px" viewBox="0 0 874 222" version="1.1" xmlns="http://www.w3.org/2000/svg" xmlns:xlink="http://www.w3.org/1999/xlink">
    <!-- Generator: Sketch 52.1 (67048) - http://www.bohemiancoding.com/sketch -->
    <title>Combined Shape</title>
    <desc>Created with Sketch.</desc>
    <defs>
        <linearGradient x1="50%" y1="0%" x2="50%" y2="100%" id="linearGradient-1">
            <stop stop-color="#A05ACC" offset="0%"></stop>
            <stop stop-color="#AD69D2" offset="100%"></stop>
        </linearGradient>
        <path d="M929,581.770857 L929,631 C929,638.179702 923.179702,644 916,644 C908.820298,644 903,638.179702 903,631 L903,495 C903,487.820298 908.820298,482 916,482 C923.179702,482 929,487.820298 929,495 C929,487.820298 934.820298,482 942,482 C949.179702,482 955,487.820298 955,495 L955,581.770857 C955,574.591155 949.179702,568.770857 942,568.770857 C934.820298,568.770857 929,574.591155 929,581.770857 Z M1035,547.684454 L1035,610 C1035,617.179702 1029.1797,623 1022,623 C1014.8203,623 1009,617.179702 1009,610 L1009,495 C1009,487.820298 1014.8203,482 1022,482 C1029.1797,482 1035,487.820298 1035,495 C1035,487.820298 1040.8203,482 1048,482 C1055.1797,482 1061,487.820298 1061,495 L1061,547.684454 C1061,540.504752 1055.1797,534.684454 1048,534.684454 C1040.8203,534.684454 1035,540.504752 1035,547.684454 Z M1088,562.656498 L1088,564 C1088,571.179702 1082.1797,577 1075,577 C1067.8203,577 1062,571.179702 1062,564 L1062,495 C1062,487.820298 1067.8203,482 1075,482 C1082.1797,482 1088,487.820298 1088,495 L1088,498 C1088,490.820298 1093.8203,485 1101,485 C1108.1797,485 1114,490.820298 1114,498 L1114,562.656498 C1114,555.476797 1108.1797,549.656498 1101,549.656498 C1093.8203,549.656498 1088,555.476797 1088,562.656498 Z M823,535.72457 L823,610 C823,617.179702 817.179702,623 810,623 C802.820298,623 797,617.179702 797,610 L797,495 C797,487.820298 802.820298,482 810,482 C817.179702,482 823,487.820298 823,495 C823,487.820298 828.820298,482 836,482 C843.179702,482 849,487.820298 849,495 L849,535.72457 C849,528.544868 843.179702,522.72457 836,522.72457 C828.820298,522.72457 823,528.544868 823,535.72457 Z M876,559.656498 L876,564 C876,571.179702 870.179702,577 863,577 C855.820298,577 850,571.179702 850,564 L850,495 C850,487.820298 855.820298,482 863,482 C870.179702,482 876,487.820298 876,495 C876,487.820298 881.820298,482 889,482 C896.179702,482 902,487.820298 902,495 L902,559.656498 C902,552.476797 896.179702,546.656498 889,546.656498 C881.820298,546.656498 876,552.476797 876,559.656498 Z M982,559.656498 L982,589 C982,596.179702 976.179702,602 969,602 C961.820298,602 956,596.179702 956,589 L956,495 C956,487.820298 961.820298,482 969,482 C976.179702,482 982,487.820298 982,495 C982,487.820298 987.820298,482 995,482 C1002.1797,482 1008,487.820298 1008,495 L1008,559.656498 C1008,552.476797 1002.1797,546.656498 995,546.656498 C987.820298,546.656498 982,552.476797 982,559.656498 Z M770,554.673651 L770,589 C770,596.179702 764.179702,602 757,602 C749.820298,602 744,596.179702 744,589 L744,495 C744,487.820298 749.820298,482 757,482 C764.179702,482 770,487.820298 770,495 C770,487.820298 775.820298,482 783,482 C790.179702,482 796,487.820298 796,495 L796,554.673651 C796,547.493949 790.179702,541.673651 783,541.673651 C775.820298,541.673651 770,547.493949 770,554.673651 Z M691,495 C691,487.820298 696.820298,482 704,482 C711.179702,482 717,487.820298 717,495 C717,487.820298 722.820298,482 730,482 C737.179702,482 743,487.820298 743,495 L743,547.684454 C743,540.504752 737.179702,534.684454 730,534.684454 C722.820298,534.684454 717,540.504752 717,547.684454 L717,570 C717,577.179702 711.179702,583 704,583 C696.820298,583 691,577.179702 691,570 L691,569.809454 C691,562.629753 685.179702,556.809454 678,556.809454 C670.820298,556.809454 665,562.629753 665,569.809454 L665,495 C665,487.820298 670.820298,482 678,482 C685.179702,482 691,487.820298 691,495 Z M638,495 C638,487.820298 643.820298,482 651,482 C658.179702,482 664,487.820298 664,495 L664,610 C664,617.179702 658.179702,623 651,623 C643.820298,623 638,617.179702 638,610 L638,535.72457 C638,528.544868 632.179702,522.72457 625,522.72457 C617.820298,522.72457 612,528.544868 612,535.72457 L612,495 C612,487.820298 617.820298,482 625,482 C632.179702,482 638,487.820298 638,495 Z M585,495 C585,487.820298 590.820298,482 598,482 C605.179702,482 611,487.820298 611,495 L611,579 C611,586.179702 605.179702,592 598,592 C590.820298,592 585,586.179702 585,579 L585,547.684454 C585,540.504752 579.179702,534.684454 572,534.684454 C564.820298,534.684454 559,540.504752 559,547.684454 L559,495 C559,487.820298 564.820298,482 572,482 C579.179702,482 585,487.820298 585,495 Z M532,495 C532,487.820298 537.820298,482 545,482 C552.179702,482 558,487.820298 558,495 L558,556 C558,563.179702 552.179702,569 545,569 C537.820298,569 532,563.179702 532,556 L532,535.72457 C532,528.544868 526.179702,522.72457 519,522.72457 C511.820298,522.72457 506,528.544868 506,535.72457 L506,495 C506,487.820298 511.820298,482 519,482 C526.179702,482 532,487.820298 532,495 Z M479,495 C479,487.820298 484.820298,482 492,482 C499.179702,482 505,487.820298 505,495 L505,626 C505,633.179702 499.179702,639 492,639 C484.820298,639 479,633.179702 479,626 L479,569.809454 C479,562.629753 473.179702,556.809454 466,556.809454 C458.820298,556.809454 453,562.629753 453,569.809454 L453,495 C453,487.820298 458.820298,482 466,482 C473.179702,482 479,487.820298 479,495 Z M426,495 C426,487.820298 431.820298,482 439,482 C446.179702,482 452,487.820298 452,495 L452,581 C452,588.179702 446.179702,594 439,594 C431.820298,594 426,588.179702 426,581 L426,535.72457 C426,528.544868 420.179702,522.72457 413,522.72457 C405.820298,522.72457 400,528.544868 400,535.72457 L400,495 C400,487.820298 405.820298,482 413,482 C420.179702,482 426,487.820298 426,495 Z M373,495 C373,487.820298 378.820298,482 386,482 C393.179702,482 399,487.820298 399,495 L399,568 C399,575.179702 393.179702,581 386,581 C378.820298,581 373,575.179702 373,568 L373,559.656498 C373,552.476797 367.179702,546.656498 360,546.656498 C352.820298,546.656498 347,552.476797 347,559.656498 L347,495 C347,487.820298 352.820298,482 360,482 C367.179702,482 373,487.820298 373,495 Z M320,495 C320,487.820298 325.820298,482 333,482 C340.179702,482 346,487.820298 346,495 L346,610 C346,617.179702 340.179702,623 333,623 C325.820298,623 320,617.179702 320,610 L320,547.684454 C320,540.504752 314.179702,534.684454 307,534.684454 C299.820298,534.684454 294,540.504752 294,547.684454 L294,495 C294,487.820298 299.820298,482 307,482 C314.179702,482 320,487.820298 320,495 Z M280,482 C287.179702,482 293,487.820298 293,495 L293,564 C293,571.179702 287.179702,577 280,577 C272.820298,577 267,571.179702 267,564 L267,495 C267,487.820298 272.820298,482 280,482 Z M492,648 C499.179702,648 505,653.820298 505,661 L505,669 C505,676.179702 499.179702,682 492,682 C484.820298,682 479,676.179702 479,669 L479,661 C479,653.820298 484.820298,648 492,648 Z M757,612 C764.179702,612 770,617.820298 770,625 L770,650 C770,657.179702 764.179702,663 757,663 C749.820298,663 744,657.179702 744,650 L744,625 C744,617.820298 749.820298,612 757,612 Z M757,672 C764.179702,672 770,677.820298 770,685 L770,691 C770,698.179702 764.179702,704 757,704 C749.820298,704 744,698.179702 744,691 L744,685 C744,677.820298 749.820298,672 757,672 Z M1075,606 C1082.1797,606 1088,611.820298 1088,619 L1088,625 C1088,632.179702 1082.1797,638 1075,638 C1067.8203,638 1062,632.179702 1062,625 L1062,619 C1062,611.820298 1067.8203,606 1075,606 Z M1128,482 C1135.1797,482 1141,487.820298 1141,495 L1141,610 C1141,617.179702 1135.1797,623 1128,623 C1120.8203,623 1115,617.179702 1115,610 L1115,495 C1115,487.820298 1120.8203,482 1128,482 Z" id="path-2"></path>
    </defs>
    <g id="Page-1" stroke="none" stroke-width="1" fill="none" fill-rule="evenodd">
        <g id="Desktop" transform="translate(-267.000000, -483.000000)" fill-rule="nonzero">
            <g id="Group-2" transform="translate(0.000000, 1.000000)">
                <g id="Combined-Shape">
                    <use fill="#077DFC" xlink:href="#path-2"></use>
                    <use fill="url(#linearGradient-1)" xlink:href="#path-2"></use>
                    <use fill="#6A7FE3" xlink:href="#path-2"></use>
                </g>
            </g>
        </g>
    </g>
</svg>